HIERARCHY
ROOT Hips
{
	OFFSET 0.000000 0.000000 0.000000
	CHANNELS 6 Xposition Yposition Zposition Zrotation Yrotation Xrotation 
	JOINT LeftUpLeg_virtual
	{
		OFFSET 0.000000 0.000000 0.000000
		CHANNELS 3 Zrotation Yrotation Xrotation
		JOINT LeftUpLeg
		{
			OFFSET 10.205400 -3.823500 0.155100
			CHANNELS 3 Zrotation Yrotation Xrotation
			JOINT LeftLeg
			{
				OFFSET 0.708757 -12.982077 0.567790
				CHANNELS 3 Zrotation Yrotation Xrotation
				JOINT LeftFoot
				{
					OFFSET -0.708756 -10.717838 -2.184338
					CHANNELS 3 Zrotation Yrotation Xrotation
					JOINT LeftToeBase
					{
						OFFSET 0.108149 -7.191104 7.560241
						CHANNELS 3 Zrotation Yrotation Xrotation
						End Site
						{
							OFFSET 0.000000 0.000000 0.000000
						}
					}
				}
			}
		}
	}
	JOINT RightUpLeg_virtual
	{
		OFFSET 0.000000 0.000000 0.000000
		CHANNELS 3 Zrotation Yrotation Xrotation
		JOINT RightUpLeg
		{
			OFFSET -10.205400 -3.823500 0.005500
			CHANNELS 3 Zrotation Yrotation Xrotation
			JOINT RightLeg
			{
				OFFSET -0.708756 -12.982134 0.610632
				CHANNELS 3 Zrotation Yrotation Xrotation
				JOINT RightFoot
				{
					OFFSET 0.708754 -10.717769 -1.945823
					CHANNELS 3 Zrotation Yrotation Xrotation
					JOINT RightToeBase
					{
						OFFSET -0.108140 -7.191069 7.372968
						CHANNELS 3 Zrotation Yrotation Xrotation
						End Site
						{
							OFFSET 0.000000 0.000000 0.000000
						}
					}
				}
			}
		}
	}
	JOINT Spine_virtual
	{
		OFFSET 0.000000 0.000000 0.000000
		CHANNELS 3 Zrotation Yrotation Xrotation
		JOINT Spine
		{
			OFFSET 0.000000 6.876099 0.125700
			CHANNELS 3 Zrotation Yrotation Xrotation
			JOINT Spine1
			{
				OFFSET 0.000000 8.022060 0.146608
				CHANNELS 3 Zrotation Yrotation Xrotation
				JOINT Spine2
				{
					OFFSET 0.000000 9.168068 0.167552
					CHANNELS 3 Zrotation Yrotation Xrotation
					JOINT Neck_virtual
					{
						OFFSET 0.000000 0.000000 0.000000
						CHANNELS 3 Zrotation Yrotation Xrotation
						JOINT Neck
						{
							OFFSET 0.000000 10.314075 0.188496
							CHANNELS 3 Zrotation Yrotation Xrotation
							JOINT Head
							{
								OFFSET 0.000000 7.643700 -2.377400
								CHANNELS 3 Zrotation Yrotation Xrotation
								End Site
								{
									OFFSET 0.000000 0.000000 0.000000
								}
							}
						}
					}
					JOINT LeftShoulder_virtual
					{
						OFFSET 0.000000 0.000000 0.000000
						CHANNELS 3 Zrotation Yrotation Xrotation
						JOINT LeftShoulder
						{
							OFFSET 4.392200 8.824978 0.174984
							CHANNELS 3 Zrotation Yrotation Xrotation
							JOINT LeftArm
							{
								OFFSET 8.771219 -2.981674 -0.026999
								CHANNELS 3 Zrotation Yrotation Xrotation
								JOINT LeftForeArm
								{
									OFFSET 8.512804 0.000000 -0.000000
									CHANNELS 3 Zrotation Yrotation Xrotation
									JOINT LeftHand
									{
										OFFSET 18.484802 0.000000 -0.000000
										CHANNELS 3 Zrotation Yrotation Xrotation
										End Site
										{
											OFFSET 0.000000 0.000000 0.000000
										}
									}
								}
							}
						}
					}
					JOINT RightShoulder_virtual
					{
						OFFSET 0.000000 0.000000 0.000000
						CHANNELS 3 Zrotation Yrotation Xrotation
						JOINT RightShoulder
						{
							OFFSET -4.392200 8.824993 0.141379
							CHANNELS 3 Zrotation Yrotation Xrotation
							JOINT RightArm
							{
								OFFSET -8.771282 -2.981682 -0.094208
								CHANNELS 3 Zrotation Yrotation Xrotation
								JOINT RightForeArm
								{
									OFFSET -8.494598 0.000000 0.000000
									CHANNELS 3 Zrotation Yrotation Xrotation
									JOINT RightHand
									{
										OFFSET -18.483803 0.000000 0.000001
										CHANNELS 3 Zrotation Yrotation Xrotation
										End Site
										{
											OFFSET 0.000000 0.000000 0.000000
										}
									}
								}
							}
						}
					}
				}
			}
		}
	}
}
MOTION
Frames: 8
Frame Time: 0.033333
-20.694960 34.990852 85.433014 0.080940 71.451941 0.007274 -4.558040 -2.043864 12.391421 -19.342146 -12.978358 -10.994472 16.097171 5.605196 22.556152 -4.960562 -3.379035 2.565742 0.000000 0.000000 0.000000 0.941647 -0.252167 9.391384 1.939189 -1.266428 -44.811099 -7.883736 2.287014 29.169556 5.868866 16.401820 23.741714 0.000000 0.000000 0.000000 -2.208086 1.809906 2.217192 1.084455 -0.404738 -8.675279 0.360195 -2.580412 5.762539 0.092071 0.038241 0.012150 -0.103176 -0.613056 8.048003 -0.948254 5.125430 17.025799 0.000000 0.000000 0.000000 1.125340 -0.040024 5.194513 -9.180234 -3.267109 -2.279983 -52.391106 22.819573 32.723255 -3.788061 -56.419521 10.509089 0.000000 0.000000 0.000000 -2.301764 0.955991 4.640507 23.563791 -3.041266 -2.253145 50.437457 -24.462568 11.842440 -9.075482 54.696845 -5.386599 0.000000 0.000000 0.000000 
-19.508539 34.926685 85.670708 -0.190347 75.973150 -0.317682 -4.878310 -2.086089 12.514674 -18.650818 -14.089529 -8.937404 15.651349 4.827548 23.377403 -5.522289 -3.699180 1.345889 0.000000 0.000000 0.000000 0.986744 -0.318872 9.071956 2.958702 0.396281 -46.902233 -8.477300 1.756513 22.305699 6.743439 15.827669 25.959471 0.000000 0.000000 0.000000 -2.196631 1.709844 2.632620 1.376560 -0.216542 -8.004908 0.323794 -2.661708 5.730122 0.004611 0.000169 -0.012557 -0.073480 -0.694687 8.176524 -0.812170 4.638831 16.451284 0.000000 0.000000 0.000000 1.106121 -0.044466 5.259500 -9.296806 -3.530083 -2.012758 -52.234633 22.832356 32.034550 -3.880704 -56.188671 10.939472 0.000000 0.000000 0.000000 -2.300021 0.992835 4.802203 23.240518 -2.722158 -2.415038 50.971892 -24.535392 12.323129 -9.151289 54.721532 -5.362747 0.000000 0.000000 0.000000 
-18.274820 34.825031 85.886497 0.009605 80.673652 -0.031141 -5.208853 -2.084239 12.654487 -17.896089 -15.375994 -7.087870 15.504125 4.017345 24.563034 -6.213663 -4.521873 -0.011517 0.000000 0.000000 0.000000 0.973100 -0.430792 8.833392 3.787788 1.956134 -48.777379 -8.951692 1.251673 17.185454 7.075875 15.317114 27.255199 0.000000 0.000000 0.000000 -2.103557 1.553766 2.909116 1.593143 -0.031525 -7.491363 0.228441 -2.732275 5.760350 -0.010208 -0.020076 0.004935 -0.103463 -0.867753 8.256812 -0.804056 4.229128 15.953046 0.000000 0.000000 0.000000 1.080076 -0.025434 5.286854 -9.429854 -3.677128 -1.687061 -52.033365 22.901086 31.351562 -3.898139 -56.031102 11.352359 0.000000 0.000000 0.000000 -2.347028 0.941099 4.904501 22.898728 -2.476448 -2.534857 51.243020 -24.470350 13.181776 -9.135683 54.865865 -5.298910 0.000000 0.000000 0.000000 
-16.978676 34.675091 86.065620 -0.572845 85.830541 -0.547264 -5.276490 -2.147803 12.786111 -17.042237 -16.498278 -5.223984 15.379802 2.796251 25.839458 -7.035537 -5.870104 -1.367139 0.000000 0.000000 0.000000 1.056057 -0.747652 8.760456 4.397670 3.359930 -50.129832 -9.347280 0.644303 14.012592 6.800596 14.890323 27.548972 0.000000 0.000000 0.000000 -1.716370 1.418774 3.197120 1.830779 0.102308 -7.142796 0.087167 -2.808342 5.730974 0.042542 -0.017998 -0.019393 -0.176898 -0.907683 8.353379 -0.910107 3.844047 15.592475 0.000000 0.000000 0.000000 0.956532 -0.266495 5.344075 -9.614381 -3.724051 -1.377393 -51.850794 22.943483 30.601925 -3.969890 -56.068996 11.740636 0.000000 0.000000 0.000000 -2.484173 0.783721 4.884925 22.725790 -2.495990 -2.591927 51.166801 -24.288189 14.030803 -9.003758 55.087969 -5.250798 0.000000 0.000000 0.000000 
-15.632586 34.487690 86.208229 -178.896629 89.229755 -178.905057 -5.024749 -2.005795 12.768642 -16.627339 -16.637101 -3.265820 15.077779 2.432472 27.467626 -6.959059 -6.378209 -2.772594 0.000000 0.000000 0.000000 1.189779 -0.790506 8.771103 4.822906 4.478966 -50.617955 -9.666066 0.251370 12.774786 6.083992 14.594415 27.066829 0.000000 0.000000 0.000000 -1.297618 1.380838 3.547249 2.014271 0.251389 -6.964709 -0.000079 -2.996455 5.660291 0.007204 0.061625 -0.002628 -0.294994 -0.985900 8.361540 -1.164608 3.480870 15.343815 0.000000 0.000000 0.000000 0.883544 -0.263143 5.403687 -9.837153 -3.779322 -1.204405 -51.823230 22.946669 29.594551 -4.104265 -56.035080 12.028819 0.000000 0.000000 0.000000 -2.593928 0.672686 4.868078 22.712621 -2.508250 -2.706305 50.860167 -23.951044 14.802567 -8.831306 55.143693 -5.219064 0.000000 0.000000 0.000000 
-14.228272 34.272076 86.299316 179.982001 84.243403 179.950541 -4.486121 -1.961267 12.548866 -16.510555 -16.522795 -1.195738 14.800919 2.494921 29.072553 -6.621649 -5.829918 -3.660835 0.000000 0.000000 0.000000 2.048659 -0.770318 8.693852 5.145036 4.333189 -49.824123 -9.245697 -0.487348 11.482188 6.134639 15.192704 29.591375 0.000000 0.000000 0.000000 -0.852895 1.165214 3.846082 2.140972 0.118710 -6.983224 -0.110125 -2.979358 5.618310 -0.041862 -0.078685 -0.006550 -0.380717 -1.027640 8.389086 -1.439139 3.186499 15.266893 0.000000 0.000000 0.000000 0.831056 -0.273676 5.283152 -10.094631 -3.520047 -0.915431 -52.004705 23.082010 28.601697 -4.151908 -55.924482 12.306239 0.000000 0.000000 0.000000 -2.676922 0.675142 4.824479 22.992720 -2.546184 -2.867187 50.445561 -23.580646 15.316006 -8.395601 55.164276 -5.033143 0.000000 0.000000 0.000000 
-12.707306 34.062168 86.257286 178.112906 79.347209 177.972559 -4.128081 -2.154462 12.342819 -16.531686 -16.072116 1.096761 14.241333 3.361807 30.383970 -5.887086 -4.489929 -3.581796 0.000000 0.000000 0.000000 2.848898 -0.304608 7.930107 5.200822 3.998100 -47.013770 -9.237611 1.515351 11.223815 7.016971 16.367384 30.935255 0.000000 0.000000 0.000000 -0.668450 1.089287 4.081640 2.018838 0.017056 -7.093291 -0.282648 -2.994250 5.606020 0.038030 -0.133463 -0.049702 -0.464389 -1.119444 8.467506 -1.755232 2.947767 15.416680 0.000000 0.000000 0.000000 0.833387 -0.277585 5.239763 -10.252383 -3.321834 -0.863424 -52.445536 23.347852 27.341066 -4.235913 -55.560601 12.430248 0.000000 0.000000 0.000000 -2.780740 0.553043 4.701413 23.551679 -2.851372 -3.027063 50.139374 -23.343568 15.504593 -7.871100 55.313276 -4.806032 0.000000 0.000000 0.000000 
-11.090021 33.907780 86.150940 177.942411 74.918474 177.733284 -3.491044 -2.208754 12.198381 -16.098315 -15.285352 3.231007 14.159211 4.832199 31.275617 -7.038441 -3.118824 -2.258082 0.000000 0.000000 0.000000 3.749779 -0.014151 8.084337 4.906131 3.160336 -45.103718 -9.518484 3.521322 13.251036 7.826993 17.400446 29.894792 0.000000 0.000000 0.000000 -0.512457 1.000082 4.190306 1.842354 -0.109096 -7.331317 -0.324773 -3.010799 5.577046 0.123445 -0.322525 -0.009626 -0.547396 -1.031723 8.378311 -2.148183 2.633836 15.479927 0.000000 0.000000 0.000000 0.772354 -0.303862 5.064270 -10.269491 -3.067885 -0.672709 -52.977751 23.638238 26.609785 -3.970899 -54.906460 11.982495 0.000000 0.000000 0.000000 -2.849472 0.495497 4.464366 24.218012 -3.222822 -3.205654 49.918875 -23.193570 15.276618 -7.225735 55.793746 -4.500580 0.000000 0.000000 0.000000 
